<svg width="367.0800048828125px" height="91.92000122070313px" xmlns="http://www.w3.org/2000/svg" viewBox="66.45999755859376 29.039999389648436 367.0800048828125 91.92000122070313" style="background: none;" preserveAspectRatio="xMidYMid"><defs><linearGradient id="editing-sticker-gradient" x1="0.3071637170940382" y1="0.2701866670643066" x2="0.6928362829059618" y2="0.7298133329356934"><stop offset="0" stop-color="#fd9"></stop><stop offset="1" stop-color="#9df"></stop></linearGradient><filter id="editing-sticker" x="-100%" y="-100%" width="300%" height="300%"><feMorphology operator="erode" radius="1" in="SourceAlpha" result="alpha-erode"></feMorphology><feConvolveMatrix order="3,3" divisor="1" kernelMatrix="0 1 0 1 1 1 0 1 0" in="alpha-erode" result="alpha-round"></feConvolveMatrix><feMorphology operator="dilate" radius="3.5" in="alpha-round" result="dilate-shadow"></feMorphology><feGaussianBlur in="dilate-shadow" stdDeviation="1.5" result="shadow"></feGaussianBlur><feFlood flood-color="#fff" result="flood-sticker"></feFlood><feComposite operator="in" in="flood-sticker" in2="alpha-round" result="comp-sticker"></feComposite><feMorphology operator="dilate" radius="3" in="comp-sticker" result="morph-sticker"></feMorphology><feConvolveMatrix order="3,3" divisor="1" kernelMatrix="0 1 0 1 1 1 0 1 0" in="morph-sticker" result="sticker"></feConvolveMatrix><feMerge><feMergeNode in="shadow"></feMergeNode><feMergeNode in="sticker"></feMergeNode><feMergeNode in="SourceGraphic"></feMergeNode></feMerge></filter></defs><g filter="url(#editing-sticker)"><g transform="translate(124.37999320030212, 88.18999767303467)"><path d="M2.16-0.36L2.63-0.36L2.63-0.36Q3.56-0.36 4.23-1.03L4.23-1.03L4.23-1.03Q4.90-1.69 4.93-2.63L4.93-2.63L4.93-22.61L4.93-22.61Q4.90-23.54 4.23-24.19L4.23-24.19L4.23-24.19Q3.56-24.84 2.63-24.84L2.63-24.84L2.16-24.84L2.16-25.20L10.04-25.20L10.04-24.84L9.58-24.84L9.58-24.84Q8.64-24.84 7.97-24.19L7.97-24.19L7.97-24.19Q7.31-23.54 7.27-22.61L7.27-22.61L7.27-2.63L7.27-2.63Q7.27-1.69 7.96-1.03L7.96-1.03L7.96-1.03Q8.64-0.36 9.58-0.36L9.58-0.36L10.04-0.36L10.04 0L2.16 0L2.16-0.36ZM29.20-0.36L29.63-0.36L29.63-0.36Q30.46-0.36 31.07-0.92L31.07-0.92L31.07-0.92Q31.68-1.48 31.72-2.27L31.72-2.27L31.72-10.12L18.43-10.12L18.43-2.27L18.43-2.27Q18.47-1.48 19.08-0.92L19.08-0.92L19.08-0.92Q19.69-0.36 20.52-0.36L20.52-0.36L20.95-0.36L20.95 0L13.61 0L13.61-0.36L14.04-0.36L14.04-0.36Q14.90-0.36 15.50-0.94L15.50-0.94L15.50-0.94Q16.09-1.51 16.13-2.30L16.13-2.30L16.13-19.30L16.13-19.30Q16.09-20.09 15.48-20.66L15.48-20.66L15.48-20.66Q14.87-21.24 14.04-21.24L14.04-21.24L13.61-21.24L13.61-21.60L20.95-21.60L20.95-21.24L20.52-21.24L20.52-21.24Q19.69-21.24 19.08-20.68L19.08-20.68L19.08-20.68Q18.47-20.12 18.43-19.33L18.43-19.33L18.43-11.20L31.72-11.20L31.72-19.30L31.72-19.30Q31.72-20.09 31.25-20.52L31.25-20.52L31.25-20.52Q30.49-21.24 29.63-21.24L29.63-21.24L29.20-21.24L29.20-21.60L36.54-21.60L36.54-21.24L36.11-21.24L36.11-21.24Q35.28-21.24 34.67-20.70L34.67-20.70L34.67-20.70Q34.06-20.16 34.02-19.37L34.02-19.37L34.02-2.27L34.02-2.27Q34.06-1.48 34.49-1.08L34.49-1.08L34.49-1.08Q35.28-0.36 36.11-0.36L36.11-0.36L36.54-0.36L36.54 0L29.20 0L29.20-0.36ZM40.57-1.19L40.57-1.19L40.57-1.19Q40.46-1.62 40.46-2.95L40.46-2.95L40.46-2.95Q40.46-4.28 40.93-5.65L40.93-5.65L41.36-5.65L41.36-5.65Q41.33-5.33 41.33-5.00L41.33-5.00L41.33-5.00Q41.33-3.06 42.61-1.82L42.61-1.82L42.61-1.82Q43.88-0.58 46.15-0.58L46.15-0.58L46.15-0.58Q48.53-0.58 49.86-1.67L49.86-1.67L49.86-1.67Q51.19-2.77 51.19-4.52L51.19-4.52L51.19-4.52Q51.19-6.26 49.90-7.42L49.90-7.42L42.70-12.96L42.70-12.96Q40.97-14.44 40.97-16.92L40.97-16.92L40.97-16.92Q40.97-18.32 41.74-19.51L41.74-19.51L41.74-19.51Q42.52-20.70 43.90-21.40L43.90-21.40L43.90-21.40Q45.29-22.10 47.16-22.10L47.16-22.10L47.16-22.10Q49.03-22.10 50.47-21.78L50.47-21.78L51.66-21.78L51.73-17.86L51.34-17.86L51.34-17.86Q51.34-19.37 50.29-20.20L50.29-20.20L50.29-20.20Q49.25-21.02 47.30-21.02L47.30-21.02L47.30-21.02Q45.36-21.02 44.10-20.03L44.10-20.03L44.10-20.03Q42.84-19.04 42.84-17.48L42.84-17.48L42.84-17.48Q42.84-15.91 44.24-14.76L44.24-14.76L51.52-9.14L51.52-9.14Q53.17-7.78 53.17-5.33L53.17-5.33L53.17-5.33Q53.17-2.88 51.32-1.19L51.32-1.19L51.32-1.19Q49.46 0.50 46.80 0.50L46.80 0.50L46.80 0.50Q45.04 0.50 43.27 0.07L43.27 0.07L43.27 0.07Q41.51-0.36 40.57-1.19ZM78.88-0.36L78.88-0.36L79.16-0.36L79.16 0L71.78 0L71.78-0.36L72.07-0.36L72.07-0.36Q72.76-0.36 73.12-0.83L73.12-0.83L73.12-0.83Q73.48-1.30 73.48-1.71L73.48-1.71L73.48-1.71Q73.48-2.12 73.33-2.52L73.33-2.52L71.35-7.31L62.24-7.31L60.26-2.63L60.26-2.63Q60.08-2.16 60.08-1.75L60.08-1.75L60.08-1.75Q60.08-1.33 60.44-0.85L60.44-0.85L60.44-0.85Q60.80-0.36 61.52-0.36L61.52-0.36L61.81-0.36L61.81 0L54.94 0L54.94-0.36L55.22-0.36L55.22-0.36Q55.98-0.36 56.75-0.88L56.75-0.88L56.75-0.88Q57.53-1.40 58.03-2.45L58.03-2.45L58.03-2.45Q65.92-19.30 66.24-20.09L66.24-20.09L66.24-20.09Q66.85-21.60 66.89-22.10L66.89-22.10L67.21-22.10L76.10-2.45L76.10-2.45Q77.15-0.36 78.88-0.36ZM66.89-18.25L62.71-8.39L70.92-8.39L66.89-18.25ZM105.77-21.24L105.16-21.24L105.16-21.24Q104.36-21.24 103.79-20.72L103.79-20.72L103.79-20.72Q103.21-20.20 103.18-19.44L103.18-19.44L103.18-4.10L103.18-4.10Q103.18-2.02 103.43-0.14L103.43-0.14L103.50 0.50L103.18 0.50L84.46-17.24L84.46-2.23L84.46-2.23Q84.46-1.44 85.03-0.90L85.03-0.90L85.03-0.90Q85.61-0.36 86.44-0.36L86.44-0.36L87.05-0.36L87.05 0L80.24 0L80.24-0.36L80.86-0.36L80.86-0.36Q81.68-0.36 82.26-0.90L82.26-0.90L82.26-0.90Q82.84-1.44 82.84-2.23L82.84-2.23L82.84-17.64L82.84-17.64Q82.84-19.84 82.58-21.56L82.58-21.56L82.51-22.14L82.91-22.10L101.59-4.50L101.59-19.44L101.59-19.44Q101.52-20.20 100.94-20.72L100.94-20.72L100.94-20.72Q100.37-21.24 99.58-21.24L99.58-21.24L98.96-21.24L98.96-21.60L105.77-21.60L105.77-21.24ZM137.23-21.38L137.23-22.00L137.23-22.00Q137.23-22.86 136.62-23.49L136.62-23.49L136.62-23.49Q136.01-24.12 135.18-24.16L135.18-24.16L128.34-24.16L128.34-2.59L128.34-2.59Q128.38-1.66 129.04-1.01L129.04-1.01L129.04-1.01Q129.71-0.36 130.64-0.36L130.64-0.36L131.11-0.36L131.11 0L123.23 0L123.23-0.36L123.70-0.36L123.70-0.36Q124.63-0.36 125.30-1.01L125.30-1.01L125.30-1.01Q125.96-1.66 126.00-2.56L126.00-2.56L126.00-24.16L119.16-24.16L119.16-24.16Q118.30-24.12 117.70-23.49L117.70-23.49L117.70-23.49Q117.11-22.86 117.11-22.00L117.11-22.00L117.11-21.38L116.75-21.35L116.75-25.88L116.75-25.88Q117.29-25.67 118.62-25.45L118.62-25.45L118.62-25.45Q119.95-25.24 121.07-25.24L121.07-25.24L133.24-25.24L133.24-25.24Q135.00-25.24 136.17-25.51L136.17-25.51L136.17-25.51Q137.34-25.78 137.59-25.88L137.59-25.88L137.59-21.35L137.23-21.38ZM143.96-20.68L143.96-20.68L143.96-20.68Q146.74-22.10 150.07-22.10L150.07-22.10L150.07-22.10Q153.40-22.10 156.17-20.68L156.17-20.68L156.17-20.68Q158.94-19.26 160.58-16.67L160.58-16.67L160.58-16.67Q162.22-14.08 162.22-10.80L162.22-10.80L162.22-10.80Q162.22-7.52 160.58-4.93L160.58-4.93L160.58-4.93Q158.94-2.34 156.17-0.92L156.17-0.92L156.17-0.92Q153.40 0.50 150.48 0.50L150.48 0.50L150.48 0.50Q147.56 0.50 145.33-0.32L145.33-0.32L145.33-0.32Q143.10-1.15 141.46-2.63L141.46-2.63L141.46-2.63Q139.82-4.10 138.87-6.23L138.87-6.23L138.87-6.23Q137.92-8.35 137.92-11.21L137.92-11.21L137.92-11.21Q137.92-14.08 139.55-16.67L139.55-16.67L139.55-16.67Q141.19-19.26 143.96-20.68ZM143.30-3.44L143.30-3.44L143.30-3.44Q146.02-0.58 150.05-0.58L150.05-0.58L150.05-0.58Q154.08-0.58 156.82-3.44L156.82-3.44L156.82-3.44Q159.55-6.30 159.55-10.80L159.55-10.80L159.55-10.80Q159.55-15.30 156.82-18.16L156.82-18.16L156.82-18.16Q154.08-21.02 150.05-21.02L150.05-21.02L150.05-21.02Q146.02-21.02 143.30-18.16L143.30-18.16L143.30-18.16Q140.58-15.30 140.58-10.80L140.58-10.80L140.58-10.80Q140.58-6.30 143.30-3.44ZM190.58-21.24L189.97-21.24L189.97-21.24Q189.18-21.24 188.60-20.72L188.60-20.72L188.60-20.72Q188.03-20.20 187.99-19.44L187.99-19.44L187.99-4.10L187.99-4.10Q187.99-2.02 188.24-0.14L188.24-0.14L188.32 0.50L187.99 0.50L169.27-17.24L169.27-2.23L169.27-2.23Q169.27-1.44 169.85-0.90L169.85-0.90L169.85-0.90Q170.42-0.36 171.25-0.36L171.25-0.36L171.86-0.36L171.86 0L165.06 0L165.06-0.36L165.67-0.36L165.67-0.36Q166.50-0.36 167.08-0.90L167.08-0.90L167.08-0.90Q167.65-1.44 167.65-2.23L167.65-2.23L167.65-17.64L167.65-17.64Q167.65-19.84 167.40-21.56L167.40-21.56L167.33-22.14L167.72-22.10L186.41-4.50L186.41-19.44L186.41-19.44Q186.34-20.20 185.76-20.72L185.76-20.72L185.76-20.72Q185.18-21.24 184.39-21.24L184.39-21.24L183.78-21.24L183.78-21.60L190.58-21.60L190.58-21.24ZM215.78-21.60L215.78-21.24L215.24-21.24L215.24-21.24Q214.27-21.24 213.77-20.48L213.77-20.48L213.77-20.48Q213.55-20.16 213.52-19.73L213.52-19.73L213.52-7.60L213.52-7.60Q213.52-3.85 211.12-1.67L211.12-1.67L211.12-1.67Q208.73 0.50 204.55 0.50L204.55 0.50L204.55 0.50Q200.38 0.50 197.96-1.66L197.96-1.66L197.96-1.66Q195.55-3.82 195.55-7.56L195.55-7.56L195.55-19.69L195.55-19.69Q195.55-20.34 195.05-20.79L195.05-20.79L195.05-20.79Q194.54-21.24 193.82-21.24L193.82-21.24L193.28-21.24L193.28-21.60L200.12-21.60L200.12-21.24L199.58-21.24L199.58-21.24Q198.86-21.24 198.36-20.79L198.36-20.79L198.36-20.79Q197.86-20.34 197.86-19.69L197.86-19.69L197.86-7.99L197.86-7.99Q197.86-4.50 199.64-2.48L199.64-2.48L199.64-2.48Q201.42-0.47 204.68-0.47L204.68-0.47L204.68-0.47Q207.94-0.47 209.90-2.38L209.90-2.38L209.90-2.38Q211.86-4.28 211.86-7.60L211.86-7.60L211.86-19.69L211.86-19.69Q211.82-20.38 211.34-20.81L211.34-20.81L211.34-20.81Q210.85-21.24 210.13-21.24L210.13-21.24L209.59-21.24L209.59-21.60L215.78-21.60ZM219.78-18.72L219.78-18.72L219.78-18.14L219.38-18.14L219.38-22.21L219.38-22.21Q219.85-22.00 221.09-21.83L221.09-21.83L221.09-21.83Q222.34-21.67 223.42-21.64L223.42-21.64L231.70-21.64L231.70-21.64Q232.81-21.64 234.11-21.78L234.11-21.78L234.11-21.78Q235.40-21.92 235.76-22.10L235.76-22.10L235.76-21.78L222.08-1.08L231.95-1.08L231.95-1.08Q233.60-1.12 234.76-1.67L234.76-1.67L234.76-1.67Q235.91-2.23 236.50-3.02L236.50-3.02L236.50-3.02Q237.10-3.82 237.67-5.15L237.67-5.15L238.03-5.15L236.09 0L218.84 0L218.84-0.32L232.27-20.56L221.54-20.56L221.54-20.56Q220.46-20.52 220.00-19.62L220.00-19.62L220.00-19.62Q219.78-19.19 219.78-18.72ZM240.91-0.36L241.42-0.36L241.42-0.36Q242.39-0.36 243.11-0.94L243.11-0.94L243.11-0.94Q243.83-1.51 243.83-2.30L243.83-2.30L243.83-19.30L243.83-19.30Q243.83-20.09 243.11-20.66L243.11-20.66L243.11-20.66Q242.39-21.24 241.38-21.24L241.38-21.24L240.91-21.24L240.91-21.60L249.05-21.60L249.05-21.24L248.58-21.24L248.58-21.24Q247.61-21.24 246.91-20.70L246.91-20.70L246.91-20.70Q246.20-20.16 246.13-19.37L246.13-19.37L246.13-2.27L246.13-2.27Q246.17-1.48 246.89-0.92L246.89-0.92L246.89-0.92Q247.61-0.36 248.58-0.36L248.58-0.36L249.05-0.36L249.08 0L240.91 0L240.91-0.36Z" fill="url(#editing-sticker-gradient)" stroke="#000" stroke-width="3"></path></g></g><style>text {
  font-size: 64px;
  font-family: Arial Black;
  dominant-baseline: central;
  text-anchor: middle;
}</style></svg>